<svg viewBox="0 0 521.3333333333333 436.0" xmlns="http://www.w3.org/2000/svg" style="background:white" font-family="Inter,sans-serif">
<text x="24.0" y="18" font-size="14" font-weight="600" fill="#4a3a8a">elk (ours)</text>
<text x="299.0" y="18" font-size="14" font-weight="600" fill="#888">elkjs 0.9.3</text>
<rect x="169.0" y="28.0" width="50.0" height="40.0" rx="3" fill="#c9cef0" stroke="#5b63b0"/>
<text x="194.0" y="52.0" font-size="11" text-anchor="middle" fill="#22224a">n1</text>
<rect x="169.0" y="88.0" width="50.0" height="40.0" rx="3" fill="#c9cef0" stroke="#5b63b0"/>
<text x="194.0" y="112.0" font-size="11" text-anchor="middle" fill="#22224a">n2</text>
<rect x="99.0" y="148.0" width="50.0" height="40.0" rx="3" fill="#c9cef0" stroke="#5b63b0"/>
<text x="124.0" y="172.0" font-size="11" text-anchor="middle" fill="#22224a">n3</text>
<rect x="94.0" y="208.0" width="50.0" height="40.0" rx="3" fill="#c9cef0" stroke="#5b63b0"/>
<text x="119.0" y="232.0" font-size="11" text-anchor="middle" fill="#22224a">n4</text>
<rect x="99.0" y="278.0" width="50.0" height="40.0" rx="3" fill="#c9cef0" stroke="#5b63b0"/>
<text x="124.0" y="302.0" font-size="11" text-anchor="middle" fill="#22224a">n5</text>
<rect x="99.0" y="338.0" width="50.0" height="40.0" rx="3" fill="#c9cef0" stroke="#5b63b0"/>
<text x="124.0" y="362.0" font-size="11" text-anchor="middle" fill="#22224a">n6</text>
<rect x="29.0" y="88.0" width="50.0" height="40.0" rx="3" fill="#c9cef0" stroke="#5b63b0"/>
<text x="54.0" y="112.0" font-size="11" text-anchor="middle" fill="#22224a">n7</text>
<rect x="29.0" y="148.0" width="50.0" height="40.0" rx="3" fill="#c9cef0" stroke="#5b63b0"/>
<text x="54.0" y="172.0" font-size="11" text-anchor="middle" fill="#22224a">n8</text>
<rect x="169.0" y="278.0" width="50.0" height="40.0" rx="3" fill="#c9cef0" stroke="#5b63b0"/>
<text x="194.0" y="302.0" font-size="11" text-anchor="middle" fill="#22224a">n10</text>
<rect x="169.0" y="338.0" width="50.0" height="40.0" rx="3" fill="#c9cef0" stroke="#5b63b0"/>
<text x="194.0" y="362.0" font-size="11" text-anchor="middle" fill="#22224a">n11</text>
<rect x="29.0" y="278.0" width="50.0" height="40.0" rx="3" fill="#c9cef0" stroke="#5b63b0"/>
<text x="54.0" y="302.0" font-size="11" text-anchor="middle" fill="#22224a">n12</text>
<rect x="24.0" y="338.0" width="50.0" height="40.0" rx="3" fill="#c9cef0" stroke="#5b63b0"/>
<text x="49.0" y="362.0" font-size="11" text-anchor="middle" fill="#22224a">n13</text>
<polyline points="194.0,68.0 194.0,88.0" fill="none" stroke="#444" stroke-width="1.3"/>
<polyline points="189.0,128.0 189.0,138.0 124.0,138.0 124.0,148.0" fill="none" stroke="#444" stroke-width="1.3"/>
<polyline points="124.0,188.0 124.0,208.0" fill="none" stroke="#444" stroke-width="1.3"/>
<polyline points="124.0,248.0 124.0,278.0" fill="none" stroke="#444" stroke-width="1.3"/>
<polyline points="124.0,318.0 124.0,338.0" fill="none" stroke="#444" stroke-width="1.3"/>
<polyline points="54.0,128.0 54.0,148.0" fill="none" stroke="#444" stroke-width="1.3"/>
<polyline points="54.0,188.0 54.0,198.0 114.0,198.0 114.0,208.0" fill="none" stroke="#444" stroke-width="1.3"/>
<polyline points="134.0,248.0 134.0,258.0 189.0,258.0 189.0,278.0" fill="none" stroke="#444" stroke-width="1.3"/>
<polyline points="194.0,318.0 194.0,338.0" fill="none" stroke="#444" stroke-width="1.3"/>
<polyline points="114.0,248.0 114.0,268.0 54.0,268.0 54.0,278.0" fill="none" stroke="#444" stroke-width="1.3"/>
<polyline points="104.0,248.0 104.0,258.0 19.0,258.0 19.0,328.0 44.0,328.0 44.0,338.0" fill="none" stroke="#444" stroke-width="1.3"/>
<polyline points="54.0,318.0 54.0,338.0" fill="none" stroke="#444" stroke-width="1.3"/>
<polyline points="199.0,128.0 199.0,278.0" fill="none" stroke="#444" stroke-width="1.3"/>
<rect x="384.0" y="28.0" width="50.0" height="40.0" rx="3" fill="#c9cef0" stroke="#5b63b0"/>
<text x="409.0" y="52.0" font-size="11" text-anchor="middle" fill="#22224a">n1</text>
<rect x="384.0" y="88.0" width="50.0" height="40.0" rx="3" fill="#c9cef0" stroke="#5b63b0"/>
<text x="409.0" y="112.0" font-size="11" text-anchor="middle" fill="#22224a">n2</text>
<rect x="375.6666666666667" y="148.0" width="50.0" height="40.0" rx="3" fill="#c9cef0" stroke="#5b63b0"/>
<text x="400.6666666666667" y="172.0" font-size="11" text-anchor="middle" fill="#22224a">n3</text>
<rect x="314.0" y="208.0" width="50.0" height="40.0" rx="3" fill="#c9cef0" stroke="#5b63b0"/>
<text x="339.0" y="232.0" font-size="11" text-anchor="middle" fill="#22224a">n4</text>
<rect x="377.3333333333333" y="288.0" width="50.0" height="40.0" rx="3" fill="#c9cef0" stroke="#5b63b0"/>
<text x="402.3333333333333" y="312.0" font-size="11" text-anchor="middle" fill="#22224a">n5</text>
<rect x="377.3333333333333" y="348.0" width="50.0" height="40.0" rx="3" fill="#c9cef0" stroke="#5b63b0"/>
<text x="402.3333333333333" y="372.0" font-size="11" text-anchor="middle" fill="#22224a">n6</text>
<rect x="305.6666666666667" y="88.0" width="50.0" height="40.0" rx="3" fill="#c9cef0" stroke="#5b63b0"/>
<text x="330.6666666666667" y="112.0" font-size="11" text-anchor="middle" fill="#22224a">n7</text>
<rect x="305.6666666666667" y="148.0" width="50.0" height="40.0" rx="3" fill="#c9cef0" stroke="#5b63b0"/>
<text x="330.6666666666667" y="172.0" font-size="11" text-anchor="middle" fill="#22224a">n8</text>
<rect x="447.3333333333333" y="288.0" width="50.0" height="40.0" rx="3" fill="#c9cef0" stroke="#5b63b0"/>
<text x="472.3333333333333" y="312.0" font-size="11" text-anchor="middle" fill="#22224a">n10</text>
<rect x="447.3333333333333" y="348.0" width="50.0" height="40.0" rx="3" fill="#c9cef0" stroke="#5b63b0"/>
<text x="472.3333333333333" y="372.0" font-size="11" text-anchor="middle" fill="#22224a">n11</text>
<rect x="299.0" y="288.0" width="50.0" height="40.0" rx="3" fill="#c9cef0" stroke="#5b63b0"/>
<text x="324.0" y="312.0" font-size="11" text-anchor="middle" fill="#22224a">n12</text>
<rect x="307.3333333333333" y="348.0" width="50.0" height="40.0" rx="3" fill="#c9cef0" stroke="#5b63b0"/>
<text x="332.3333333333333" y="372.0" font-size="11" text-anchor="middle" fill="#22224a">n13</text>
<polyline points="409.0,68.0 409.0,88.0" fill="none" stroke="#444" stroke-width="1.3"/>
<polyline points="400.6666666666667,128.0 400.6666666666667,148.0" fill="none" stroke="#444" stroke-width="1.3"/>
<polyline points="400.6666666666667,188.0 400.6666666666667,198.0 347.3333333333333,198.0 347.3333333333333,208.0" fill="none" stroke="#444" stroke-width="1.3"/>
<polyline points="344.0,248.0 344.0,268.0 402.3333333333333,268.0 402.3333333333333,288.0" fill="none" stroke="#444" stroke-width="1.3"/>
<polyline points="402.3333333333333,328.0 402.3333333333333,348.0" fill="none" stroke="#444" stroke-width="1.3"/>
<polyline points="330.6666666666667,128.0 330.6666666666667,148.0" fill="none" stroke="#444" stroke-width="1.3"/>
<polyline points="330.6666666666667,188.0 330.6666666666667,208.0" fill="none" stroke="#444" stroke-width="1.3"/>
<polyline points="354.0,248.0 354.0,258.0 464.0,258.0 464.0,288.0" fill="none" stroke="#444" stroke-width="1.3"/>
<polyline points="472.3333333333333,328.0 472.3333333333333,348.0" fill="none" stroke="#444" stroke-width="1.3"/>
<polyline points="324.0,248.0 324.0,288.0" fill="none" stroke="#444" stroke-width="1.3"/>
<polyline points="334.0,248.0 334.0,278.0 359.0,278.0 359.0,338.0 340.6666666666667,338.0 340.6666666666667,348.0" fill="none" stroke="#444" stroke-width="1.3"/>
<polyline points="324.0,328.0 324.0,348.0" fill="none" stroke="#444" stroke-width="1.3"/>
<polyline points="417.33333333333337,128.0 417.33333333333337,138.0 480.66666666666663,138.0 480.66666666666663,288.0" fill="none" stroke="#444" stroke-width="1.3"/>
</svg>
