<svg viewBox="0 0 988.0 246.0" xmlns="http://www.w3.org/2000/svg" style="background:white" font-family="Inter,sans-serif">
<text x="24.0" y="18" font-size="14" font-weight="600" fill="#4a3a8a">elk (ours)</text>
<text x="534.0" y="18" font-size="14" font-weight="600" fill="#888">elkjs 0.9.3</text>
<rect x="34.0" y="28.0" width="70.0" height="40.0" rx="3" fill="#c9cef0" stroke="#5b63b0"/>
<text x="69.0" y="52.0" font-size="11" text-anchor="middle" fill="#22224a">r</text>
<rect x="299.0" y="98.0" width="70.0" height="40.0" rx="3" fill="#c9cef0" stroke="#5b63b0"/>
<text x="334.0" y="122.0" font-size="11" text-anchor="middle" fill="#22224a">a</text>
<rect x="24.0" y="98.0" width="70.0" height="40.0" rx="3" fill="#c9cef0" stroke="#5b63b0"/>
<text x="59.0" y="122.0" font-size="11" text-anchor="middle" fill="#22224a">b</text>
<rect x="119.0" y="98.0" width="70.0" height="40.0" rx="3" fill="#c9cef0" stroke="#5b63b0"/>
<text x="154.0" y="122.0" font-size="11" text-anchor="middle" fill="#22224a">c</text>
<rect x="294.0" y="158.0" width="70.0" height="40.0" rx="3" fill="#c9cef0" stroke="#5b63b0"/>
<text x="329.0" y="182.0" font-size="11" text-anchor="middle" fill="#22224a">a1</text>
<rect x="384.0" y="158.0" width="70.0" height="40.0" rx="3" fill="#c9cef0" stroke="#5b63b0"/>
<text x="419.0" y="182.0" font-size="11" text-anchor="middle" fill="#22224a">a2</text>
<rect x="24.0" y="158.0" width="70.0" height="40.0" rx="3" fill="#c9cef0" stroke="#5b63b0"/>
<text x="59.0" y="182.0" font-size="11" text-anchor="middle" fill="#22224a">b1</text>
<rect x="114.0" y="158.0" width="70.0" height="40.0" rx="3" fill="#c9cef0" stroke="#5b63b0"/>
<text x="149.0" y="182.0" font-size="11" text-anchor="middle" fill="#22224a">c1</text>
<rect x="204.0" y="158.0" width="70.0" height="40.0" rx="3" fill="#c9cef0" stroke="#5b63b0"/>
<text x="239.0" y="182.0" font-size="11" text-anchor="middle" fill="#22224a">c2</text>
<polyline points="79.0,68.0 79.0,78.0 334.0,78.0 334.0,98.0" fill="none" stroke="#444" stroke-width="1.3"/>
<polyline points="59.0,68.0 59.0,98.0" fill="none" stroke="#444" stroke-width="1.3"/>
<polyline points="69.0,68.0 69.0,88.0 154.0,88.0 154.0,98.0" fill="none" stroke="#444" stroke-width="1.3"/>
<polyline points="329.0,138.0 329.0,158.0" fill="none" stroke="#444" stroke-width="1.3"/>
<polyline points="339.0,138.0 339.0,148.0 419.0,148.0 419.0,158.0" fill="none" stroke="#444" stroke-width="1.3"/>
<polyline points="59.0,138.0 59.0,158.0" fill="none" stroke="#444" stroke-width="1.3"/>
<polyline points="149.0,138.0 149.0,158.0" fill="none" stroke="#444" stroke-width="1.3"/>
<polyline points="159.0,138.0 159.0,148.0 239.0,148.0 239.0,158.0" fill="none" stroke="#444" stroke-width="1.3"/>
<rect x="551.5" y="28.0" width="70.0" height="40.0" rx="3" fill="#c9cef0" stroke="#5b63b0"/>
<text x="586.5" y="52.0" font-size="11" text-anchor="middle" fill="#22224a">r</text>
<rect x="815.6666666666667" y="98.0" width="70.0" height="40.0" rx="3" fill="#c9cef0" stroke="#5b63b0"/>
<text x="850.6666666666667" y="122.0" font-size="11" text-anchor="middle" fill="#22224a">a</text>
<rect x="534.0" y="98.0" width="70.0" height="40.0" rx="3" fill="#c9cef0" stroke="#5b63b0"/>
<text x="569.0" y="122.0" font-size="11" text-anchor="middle" fill="#22224a">b</text>
<rect x="635.6666666666666" y="98.0" width="70.0" height="40.0" rx="3" fill="#c9cef0" stroke="#5b63b0"/>
<text x="670.6666666666666" y="122.0" font-size="11" text-anchor="middle" fill="#22224a">c</text>
<rect x="804.0" y="158.0" width="70.0" height="40.0" rx="3" fill="#c9cef0" stroke="#5b63b0"/>
<text x="839.0" y="182.0" font-size="11" text-anchor="middle" fill="#22224a">a1</text>
<rect x="894.0" y="158.0" width="70.0" height="40.0" rx="3" fill="#c9cef0" stroke="#5b63b0"/>
<text x="929.0" y="182.0" font-size="11" text-anchor="middle" fill="#22224a">a2</text>
<rect x="534.0" y="158.0" width="70.0" height="40.0" rx="3" fill="#c9cef0" stroke="#5b63b0"/>
<text x="569.0" y="182.0" font-size="11" text-anchor="middle" fill="#22224a">b1</text>
<rect x="624.0" y="158.0" width="70.0" height="40.0" rx="3" fill="#c9cef0" stroke="#5b63b0"/>
<text x="659.0" y="182.0" font-size="11" text-anchor="middle" fill="#22224a">c1</text>
<rect x="714.0" y="158.0" width="70.0" height="40.0" rx="3" fill="#c9cef0" stroke="#5b63b0"/>
<text x="749.0" y="182.0" font-size="11" text-anchor="middle" fill="#22224a">c2</text>
<polyline points="604.0,68.0 604.0,78.0 850.6666666666667,78.0 850.6666666666667,98.0" fill="none" stroke="#444" stroke-width="1.3"/>
<polyline points="569.0,68.0 569.0,98.0" fill="none" stroke="#444" stroke-width="1.3"/>
<polyline points="586.5,68.0 586.5,88.0 670.6666666666666,88.0 670.6666666666666,98.0" fill="none" stroke="#444" stroke-width="1.3"/>
<polyline points="839.0,138.0 839.0,158.0" fill="none" stroke="#444" stroke-width="1.3"/>
<polyline points="862.3333333333334,138.0 862.3333333333334,148.0 929.0,148.0 929.0,158.0" fill="none" stroke="#444" stroke-width="1.3"/>
<polyline points="569.0,138.0 569.0,158.0" fill="none" stroke="#444" stroke-width="1.3"/>
<polyline points="659.0,138.0 659.0,158.0" fill="none" stroke="#444" stroke-width="1.3"/>
<polyline points="682.3333333333333,138.0 682.3333333333333,148.0 749.0,148.0 749.0,158.0" fill="none" stroke="#444" stroke-width="1.3"/>
</svg>
