<svg viewBox="0 0 1145.0 354.0" xmlns="http://www.w3.org/2000/svg" style="background:white" font-family="Inter,sans-serif">
<defs><marker id="arrow" viewBox="0 0 10 10" refX="9" refY="5" markerWidth="7" markerHeight="7" orient="auto-start-reverse"><path d="M0,0 L10,5 L0,10 z" fill="#444"/></marker></defs>
<g transform="translate(16.0,16.0)">
<rect x="236.0" y="0.0" width="661.0" height="322.0" rx="4" fill="#dfe3f7" stroke="#9aa3d8"/>
<text x="238.0" y="-4.0" font-size="12" fill="#3a3a6a">router</text>
<rect x="410.0" y="97.0" width="94.0" height="64.0" rx="4" fill="#dfe3f7" stroke="#9aa3d8"/>
<text x="412.0" y="93.0" font-size="12" fill="#3a3a6a">Interface - fast</text>
<rect x="534.0" y="77.0" width="351.0" height="69.0" rx="4" fill="#dfe3f7" stroke="#9aa3d8"/>
<text x="536.0" y="73.0" font-size="12" fill="#3a3a6a">channel1</text>
<rect x="410.0" y="246.0" width="94.0" height="64.0" rx="4" fill="#dfe3f7" stroke="#9aa3d8"/>
<text x="412.0" y="242.0" font-size="12" fill="#3a3a6a">Interface - slow</text>
<rect x="534.0" y="226.0" width="351.0" height="69.0" rx="4" fill="#dfe3f7" stroke="#9aa3d8"/>
<text x="536.0" y="222.0" font-size="12" fill="#3a3a6a">channel2</text>
<rect x="0.0" y="17.0" width="126.0" height="40.0" rx="3" fill="#c9cef0" stroke="#5b63b0"/>
<text x="63.0" y="41.0" font-size="12" text-anchor="middle" fill="#22224a">DatagramReader</text>
<rect x="123.0" y="34.0" width="6" height="6" fill="#5b63b0"/>
<rect x="146.0" y="17.0" width="70.0" height="40.0" rx="3" fill="#c9cef0" stroke="#5b63b0"/>
<text x="181.0" y="41.0" font-size="12" text-anchor="middle" fill="#22224a">Ramp</text>
<rect x="143.0" y="34.0" width="6" height="6" fill="#5b63b0"/>
<rect x="213.0" y="34.0" width="6" height="6" fill="#5b63b0"/>
<rect x="248.0" y="27.0" width="112.0" height="40.0" rx="3" fill="#c9cef0" stroke="#5b63b0"/>
<text x="304.0" y="51.0" font-size="12" text-anchor="middle" fill="#22224a">QueueControl</text>
<rect x="245.0" y="34.0" width="6" height="6" fill="#5b63b0"/>
<rect x="245.0" y="44.0" width="6" height="6" fill="#5b63b0"/>
<rect x="245.0" y="54.0" width="6" height="6" fill="#5b63b0"/>
<rect x="357.0" y="34.0" width="6" height="6" fill="#5b63b0"/>
<rect x="357.0" y="44.0" width="6" height="6" fill="#5b63b0"/>
<rect x="357.0" y="24.0" width="6" height="6" fill="#5b63b0"/>
<rect x="357.0" y="54.0" width="6" height="6" fill="#5b63b0"/>
<rect x="357.0" y="64.0" width="6" height="6" fill="#5b63b0"/>
<rect x="410.0" y="37.0" width="77.0" height="40.0" rx="3" fill="#c9cef0" stroke="#5b63b0"/>
<text x="448.5" y="61.0" font-size="12" text-anchor="middle" fill="#22224a">Display</text>
<rect x="407.0" y="54.0" width="6" height="6" fill="#5b63b0"/>
<rect x="422.0" y="109.0" width="70.0" height="40.0" rx="3" fill="#c9cef0" stroke="#5b63b0"/>
<text x="457.0" y="133.0" font-size="12" text-anchor="middle" fill="#22224a">Sleep</text>
<rect x="419.0" y="126.0" width="6" height="6" fill="#5b63b0"/>
<rect x="489.0" y="116.0" width="6" height="6" fill="#5b63b0"/>
<rect x="489.0" y="126.0" width="6" height="6" fill="#5b63b0"/>
<rect x="489.0" y="136.0" width="6" height="6" fill="#5b63b0"/>
<rect x="546.0" y="89.0" width="77.0" height="40.0" rx="3" fill="#c9cef0" stroke="#5b63b0"/>
<text x="584.5" y="113.0" font-size="12" text-anchor="middle" fill="#22224a">Counter</text>
<rect x="543.0" y="106.0" width="6" height="6" fill="#5b63b0"/>
<rect x="620.0" y="106.0" width="6" height="6" fill="#5b63b0"/>
<rect x="643.0" y="94.0" width="133.0" height="40.0" rx="3" fill="#c9cef0" stroke="#5b63b0"/>
<text x="709.5" y="118.0" font-size="12" text-anchor="middle" fill="#22224a">RecordAssembler</text>
<rect x="640.0" y="106.0" width="6" height="6" fill="#5b63b0"/>
<rect x="640.0" y="116.0" width="6" height="6" fill="#5b63b0"/>
<rect x="773.0" y="111.0" width="6" height="6" fill="#5b63b0"/>
<rect x="796.0" y="94.0" width="77.0" height="40.0" rx="3" fill="#c9cef0" stroke="#5b63b0"/>
<text x="834.5" y="118.0" font-size="12" text-anchor="middle" fill="#22224a">Display</text>
<rect x="793.0" y="111.0" width="6" height="6" fill="#5b63b0"/>
<rect x="593.75" y="12.0" width="112.0" height="40.0" rx="3" fill="#c9cef0" stroke="#5b63b0"/>
<text x="649.75" y="36.0" font-size="12" text-anchor="middle" fill="#22224a">Counter - q1</text>
<rect x="590.75" y="24.0" width="6" height="6" fill="#5b63b0"/>
<rect x="590.75" y="34.0" width="6" height="6" fill="#5b63b0"/>
<rect x="702.75" y="29.0" width="6" height="6" fill="#5b63b0"/>
<rect x="593.75" y="166.0" width="112.0" height="40.0" rx="3" fill="#c9cef0" stroke="#5b63b0"/>
<text x="649.75" y="190.0" font-size="12" text-anchor="middle" fill="#22224a">Counter - q2</text>
<rect x="590.75" y="178.0" width="6" height="6" fill="#5b63b0"/>
<rect x="590.75" y="188.0" width="6" height="6" fill="#5b63b0"/>
<rect x="702.75" y="183.0" width="6" height="6" fill="#5b63b0"/>
<rect x="422.0" y="258.0" width="70.0" height="40.0" rx="3" fill="#c9cef0" stroke="#5b63b0"/>
<text x="457.0" y="282.0" font-size="12" text-anchor="middle" fill="#22224a">Sleep</text>
<rect x="419.0" y="275.0" width="6" height="6" fill="#5b63b0"/>
<rect x="489.0" y="265.0" width="6" height="6" fill="#5b63b0"/>
<rect x="489.0" y="275.0" width="6" height="6" fill="#5b63b0"/>
<rect x="489.0" y="285.0" width="6" height="6" fill="#5b63b0"/>
<rect x="546.0" y="238.0" width="77.0" height="40.0" rx="3" fill="#c9cef0" stroke="#5b63b0"/>
<text x="584.5" y="262.0" font-size="12" text-anchor="middle" fill="#22224a">Counter</text>
<rect x="543.0" y="255.0" width="6" height="6" fill="#5b63b0"/>
<rect x="620.0" y="255.0" width="6" height="6" fill="#5b63b0"/>
<rect x="643.0" y="243.0" width="133.0" height="40.0" rx="3" fill="#c9cef0" stroke="#5b63b0"/>
<text x="709.5" y="267.0" font-size="12" text-anchor="middle" fill="#22224a">RecordAssembler</text>
<rect x="640.0" y="255.0" width="6" height="6" fill="#5b63b0"/>
<rect x="640.0" y="265.0" width="6" height="6" fill="#5b63b0"/>
<rect x="773.0" y="260.0" width="6" height="6" fill="#5b63b0"/>
<rect x="796.0" y="243.0" width="77.0" height="40.0" rx="3" fill="#c9cef0" stroke="#5b63b0"/>
<text x="834.5" y="267.0" font-size="12" text-anchor="middle" fill="#22224a">Display</text>
<rect x="793.0" y="260.0" width="6" height="6" fill="#5b63b0"/>
<rect x="917.0" y="12.0" width="196.0" height="40.0" rx="3" fill="#c9cef0" stroke="#5b63b0"/>
<text x="1015.0" y="36.0" font-size="12" text-anchor="middle" fill="#22224a">MonitorValue - q1 length</text>
<rect x="914.0" y="29.0" width="6" height="6" fill="#5b63b0"/>
<rect x="917.0" y="72.0" width="196.0" height="40.0" rx="3" fill="#c9cef0" stroke="#5b63b0"/>
<text x="1015.0" y="96.0" font-size="12" text-anchor="middle" fill="#22224a">MonitorValue - q2 length</text>
<rect x="914.0" y="89.0" width="6" height="6" fill="#5b63b0"/>
<polyline points="623.0,109.0 643.0,109.0" fill="none" stroke="#444" stroke-width="1.4" marker-end="url(#arrow)"/>
<polyline points="776.0,114.0 796.0,114.0" fill="none" stroke="#444" stroke-width="1.4" marker-end="url(#arrow)"/>
<polyline points="623.0,258.0 643.0,258.0" fill="none" stroke="#444" stroke-width="1.4" marker-end="url(#arrow)"/>
<polyline points="776.0,263.0 796.0,263.0" fill="none" stroke="#444" stroke-width="1.4" marker-end="url(#arrow)"/>
<polyline points="360.0,37.0 400.0,37.0 400.0,57.0 410.0,57.0" fill="none" stroke="#444" stroke-width="1.4" marker-end="url(#arrow)"/>
<polyline points="360.0,27.0 593.75,27.0" fill="none" stroke="#444" stroke-width="1.4" marker-end="url(#arrow)"/>
<polyline points="360.0,57.0 380.0,57.0 380.0,181.0 593.75,181.0" fill="none" stroke="#444" stroke-width="1.4" marker-end="url(#arrow)"/>
<polyline points="705.75,32.0 895.0,32.0 895.0,2.0 238.0,2.0 238.0,47.0 248.0,47.0" fill="none" stroke="#444" stroke-width="1.4" marker-end="url(#arrow)"/>
<polyline points="705.75,186.0 895.0,186.0 895.0,320.0 238.0,320.0 238.0,57.0 248.0,57.0" fill="none" stroke="#444" stroke-width="1.4" marker-end="url(#arrow)"/>
<polyline points="126.0,37.0 146.0,37.0" fill="none" stroke="#444" stroke-width="1.4" marker-end="url(#arrow)"/>
<polyline points="360.0,47.0 390.0,47.0 390.0,129.0 410.0,129.0 422.0,129.0" fill="none" stroke="#444" stroke-width="1.4" marker-end="url(#arrow)"/>
<polyline points="360.0,67.0 370.0,67.0 370.0,278.0 410.0,278.0 422.0,278.0" fill="none" stroke="#444" stroke-width="1.4" marker-end="url(#arrow)"/>
<polyline points="492.0,119.0 504.0,119.0 514.0,119.0 514.0,109.0 534.0,109.0 546.0,109.0" fill="none" stroke="#444" stroke-width="1.4" marker-end="url(#arrow)"/>
<polyline points="492.0,268.0 504.0,268.0 514.0,268.0 514.0,258.0 534.0,258.0 546.0,258.0" fill="none" stroke="#444" stroke-width="1.4" marker-end="url(#arrow)"/>
<polyline points="492.0,129.0 504.0,129.0 524.0,129.0 524.0,37.0 593.75,37.0" fill="none" stroke="#444" stroke-width="1.4" marker-end="url(#arrow)"/>
<polyline points="492.0,278.0 504.0,278.0 524.0,278.0 524.0,191.0 593.75,191.0" fill="none" stroke="#444" stroke-width="1.4" marker-end="url(#arrow)"/>
<polyline points="492.0,139.0 504.0,139.0 534.0,139.0 546.0,139.0 633.0,139.0 633.0,119.0 643.0,119.0" fill="none" stroke="#444" stroke-width="1.4" marker-end="url(#arrow)"/>
<polyline points="492.0,288.0 504.0,288.0 534.0,288.0 546.0,288.0 633.0,288.0 633.0,268.0 643.0,268.0" fill="none" stroke="#444" stroke-width="1.4" marker-end="url(#arrow)"/>
<polyline points="216.0,37.0 236.0,37.0 228.0,37.0 248.0,37.0" fill="none" stroke="#444" stroke-width="1.4" marker-end="url(#arrow)"/>
<polyline points="705.75,32.0 905.0,32.0 897.0,32.0 917.0,32.0" fill="none" stroke="#444" stroke-width="1.4" marker-end="url(#arrow)"/>
<polyline points="705.75,186.0 905.0,186.0 897.0,186.0 907.0,186.0 907.0,92.0 917.0,92.0" fill="none" stroke="#444" stroke-width="1.4" marker-end="url(#arrow)"/>
</g></svg>

